<svg width="238" height="41" viewBox="0 0 238 41" fill="none" xmlns="http://www.w3.org/2000/svg">
<path d="M75.6294 30L70.3477 18.1055L74.9497 7.41455H66.1846L62.0073 18.2612L62.0356 15.6558V7.41455H53.4688V30H62.0356V22.0137L62.8711 20.1587L66.4395 30H75.6294ZM85.145 5.80029V9.82178H77.0596V5.80029H85.145ZM85.145 30H77.0596V11.5918H85.145V30ZM100.367 11.2095C102.302 11.2189 103.78 11.6815 104.799 12.5972C105.819 13.5129 106.329 14.8581 106.329 16.6328V30H98.2432V14.353H95.8784V30H87.793V11.5918H95.0146L95.5386 13.1777C95.9634 12.583 96.61 12.1063 97.4785 11.7476C98.347 11.3888 99.3099 11.2095 100.367 11.2095ZM117.897 30.4248C117.312 30.4248 116.807 30.4201 116.382 30.4106C115.958 30.4012 115.467 30.3776 114.91 30.3398C114.353 30.3021 113.871 30.2454 113.465 30.1699C113.069 30.1038 112.635 30.0047 112.163 29.8726C111.7 29.7404 111.304 29.5846 110.973 29.4053C110.652 29.2259 110.326 28.9993 109.996 28.7256C109.675 28.4518 109.416 28.145 109.217 27.8052C109.028 27.4653 108.873 27.0641 108.75 26.6016C108.637 26.139 108.58 25.6292 108.58 25.0723V16.5054C108.58 15.9106 108.651 15.3678 108.792 14.877C108.944 14.3766 109.161 13.9518 109.444 13.6025C109.736 13.2533 110.057 12.9465 110.407 12.6821C110.765 12.4084 111.19 12.1865 111.681 12.0166C112.172 11.8467 112.644 11.7051 113.097 11.5918C113.56 11.4785 114.088 11.3983 114.683 11.3511C115.287 11.2944 115.825 11.2567 116.297 11.2378C116.769 11.2189 117.307 11.2095 117.912 11.2095C118.648 11.2095 119.295 11.2236 119.852 11.252C120.418 11.2708 121.036 11.3228 121.707 11.4077C122.377 11.4927 122.953 11.6107 123.434 11.7617C123.925 11.9128 124.411 12.1204 124.893 12.3848C125.383 12.6491 125.78 12.9653 126.082 13.3335C126.394 13.7017 126.644 14.1548 126.833 14.6929C127.021 15.231 127.116 15.8398 127.116 16.5195V25.0864C127.116 25.8133 127.012 26.46 126.804 27.0264C126.606 27.5928 126.356 28.0648 126.054 28.4424C125.761 28.8105 125.35 29.1268 124.822 29.3911C124.303 29.646 123.816 29.8395 123.363 29.9717C122.91 30.1038 122.32 30.203 121.593 30.269C120.866 30.3446 120.262 30.387 119.781 30.3965C119.309 30.4154 118.681 30.4248 117.897 30.4248ZM116.666 26.7715H119.016V14.353H116.666V26.7715ZM149.319 7.41455V30H140.766V20.2578H138.033V30H129.48V7.41455H138.033V17.1426H140.766V7.41455H149.319ZM157.829 30.4248C155.894 30.4248 154.407 29.967 153.369 29.0513C152.34 28.1261 151.825 26.7432 151.825 24.9023V11.5918H159.925V26.7007H162.275V11.5918H170.375V30H163.054L162.53 28.4141C162.153 29.0277 161.525 29.5186 160.647 29.8867C159.769 30.2454 158.83 30.4248 157.829 30.4248ZM173.15 30L173.165 11.5918H180.046L180.627 13.6733C180.938 12.9276 181.514 12.3376 182.354 11.9033C183.195 11.4691 184.172 11.2378 185.286 11.2095V16.562L181.236 17.355V30H173.15ZM196.854 23.6846H196.869C196.793 23.5996 196.585 23.5335 196.246 23.4863C196.066 23.458 195.75 23.4155 195.297 23.3589C194.853 23.3022 194.504 23.2598 194.249 23.2314C194.004 23.1937 193.692 23.1465 193.314 23.0898C192.946 23.0238 192.606 22.9577 192.295 22.8916C191.983 22.8255 191.686 22.7547 191.403 22.6792C190.704 22.4904 190.067 22.245 189.491 21.9429C188.925 21.6408 188.401 21.2726 187.919 20.8384C187.447 20.4041 187.079 19.8849 186.815 19.2808C186.551 18.6672 186.418 17.9922 186.418 17.2559C186.418 16.529 186.503 15.8729 186.673 15.2876C186.843 14.7023 187.075 14.202 187.367 13.7866C187.66 13.3713 188.033 13.0125 188.486 12.7104C188.948 12.3989 189.435 12.1488 189.944 11.96C190.454 11.7712 191.044 11.6201 191.714 11.5068C192.385 11.3936 193.045 11.318 193.697 11.2803C194.348 11.2331 195.08 11.2095 195.892 11.2095C196.552 11.2095 197.119 11.2189 197.591 11.2378C198.072 11.2567 198.634 11.3039 199.276 11.3794C199.918 11.4549 200.465 11.5635 200.918 11.7051C201.372 11.8372 201.839 12.0355 202.32 12.2998C202.802 12.5641 203.189 12.8757 203.481 13.2344C203.774 13.5931 204.015 14.0509 204.204 14.6079C204.402 15.1554 204.501 15.7738 204.501 16.4629C204.501 17.1143 204.496 17.5107 204.487 17.6523L196.854 17.2275V14.9478H194.49V17.8081C194.575 17.8931 194.787 17.9639 195.127 18.0205C195.382 18.0583 195.882 18.1338 196.628 18.2471C197.374 18.3509 198.006 18.45 198.525 18.5444C199.045 18.6388 199.526 18.7474 199.97 18.8701C200.649 19.0589 201.268 19.2949 201.825 19.5781C202.391 19.8519 202.915 20.1965 203.396 20.6118C203.878 21.0177 204.256 21.5181 204.529 22.1128C204.803 22.6981 204.94 23.3447 204.94 24.0527C204.94 24.7702 204.869 25.4215 204.728 26.0068C204.595 26.5921 204.392 27.0972 204.119 27.522C203.854 27.9468 203.552 28.3197 203.212 28.6406C202.882 28.9616 202.476 29.2259 201.995 29.4336C201.513 29.6413 201.041 29.8159 200.579 29.9575C200.116 30.0897 199.578 30.1888 198.964 30.2549C198.351 30.321 197.784 30.3634 197.265 30.3823C196.746 30.4106 196.151 30.4248 195.481 30.4248C194.688 30.4248 194.004 30.4106 193.428 30.3823C192.852 30.354 192.243 30.2879 191.601 30.1841C190.959 30.0897 190.416 29.9575 189.973 29.7876C189.538 29.6082 189.109 29.3675 188.684 29.0654C188.259 28.7633 187.919 28.4046 187.665 27.9893C187.419 27.5645 187.221 27.05 187.07 26.4458C186.919 25.8416 186.843 25.1525 186.843 24.3784C186.843 24.1613 186.848 23.9961 186.857 23.8828L194.49 24.3359V26.7007H196.854V23.6846ZM207.092 30V5.78613H215.178V18.7002L218.987 11.5918H227.285L222.598 20.2295L227.384 30H219.171L215.787 21.8579L215.178 23.2314V30H207.092ZM236.545 5.80029V9.82178H228.46V5.80029H236.545ZM236.545 30H228.46V11.5918H236.545V30Z" fill="white"/>
<path fill-rule="evenodd" clip-rule="evenodd" d="M17.5 38C27.165 38 35 30.165 35 20.5C35 10.835 27.165 3 17.5 3C7.83502 3 0 10.835 0 20.5C0 30.165 7.83502 38 17.5 38ZM24.7348 19.0945L11.5659 15.5659L15.0945 28.7348L24.7348 19.0945Z" fill="white"/>
</svg>
