<svg width="34" height="33" viewBox="0 0 34 33" fill="none" xmlns="http://www.w3.org/2000/svg">
<ellipse cx="16.8571" cy="16.1007" rx="16.2858" ry="16.1007" fill="#313131"/>
<path d="M25.8335 19.7538C25.8335 19.6869 25.7659 19.6869 25.7659 19.6201C25.4955 19.0855 24.887 18.4173 24.0758 17.6823C23.6702 17.3482 23.4673 17.0809 23.3321 16.9472C23.1293 16.6799 23.1293 16.4795 23.1969 16.2122C23.2645 16.0117 23.5349 15.6776 24.0082 15.0762C24.2786 14.7421 24.4138 14.5416 24.6166 14.3411C25.6307 13.0047 26.1039 12.136 25.9687 11.735L25.9011 11.6682C25.8335 11.6014 25.7659 11.5346 25.6307 11.5346C25.4955 11.4678 25.2927 11.4678 25.0899 11.5346H22.5209C22.4533 11.5346 22.4533 11.5346 22.3181 11.5346C22.2505 11.5346 22.1829 11.5346 22.1829 11.5346H22.1153H22.0477L21.98 11.6014C21.9124 11.6682 21.9124 11.6682 21.9124 11.735C21.642 12.4701 21.304 13.0715 20.966 13.7397C20.7632 14.0738 20.5604 14.408 20.3575 14.6752C20.1547 14.9425 20.0195 15.143 19.8843 15.2766C19.7491 15.4103 19.6139 15.4771 19.5463 15.6108C19.4787 15.6776 19.3435 15.7444 19.3435 15.6776C19.2759 15.6776 19.2083 15.6776 19.2083 15.6108C19.1407 15.5439 19.0731 15.4771 19.0055 15.4103C18.9379 15.3435 18.9378 15.2098 18.8702 15.0762C18.8702 14.9425 18.8702 14.8089 18.8702 14.7421C18.8702 14.6752 18.8702 14.4748 18.8702 14.3411C18.8702 14.1407 18.8702 14.007 18.8702 13.9402C18.8702 13.7397 18.8702 13.4724 18.8702 13.2052C18.8702 12.9379 18.8702 12.7374 18.8702 12.6037C18.8702 12.4701 18.8702 12.2696 18.8702 12.136C18.8702 11.9355 18.8702 11.8019 18.8702 11.735C18.8702 11.6682 18.8027 11.5346 18.8027 11.4678C18.735 11.4009 18.6674 11.3341 18.5998 11.2673C18.5322 11.2005 18.397 11.2005 18.3294 11.1336C17.9914 11.0668 17.5858 11 17.1125 11C16.0309 11 15.2872 11.0668 15.0168 11.2005C14.8816 11.2673 14.7464 11.3341 14.6788 11.4678C14.5436 11.6014 14.5436 11.6682 14.6112 11.6682C14.9492 11.735 15.2196 11.8687 15.3548 12.0692L15.4224 12.2028C15.49 12.2696 15.49 12.4033 15.5576 12.6037C15.6252 12.8042 15.6252 13.0047 15.6252 13.272C15.6252 13.6729 15.6252 14.0738 15.6252 14.3411C15.6252 14.6752 15.5576 14.8757 15.5576 15.0762C15.5576 15.2766 15.49 15.4103 15.4224 15.4771C15.3548 15.6108 15.3548 15.6776 15.2872 15.6776C15.2872 15.6776 15.2872 15.7444 15.2196 15.7444C15.152 15.7444 15.0844 15.8112 14.9492 15.8112C14.8816 15.8112 14.7464 15.7444 14.6788 15.6776C14.5436 15.6108 14.4084 15.4771 14.3408 15.3435C14.2055 15.2098 14.0703 15.0094 13.9351 14.7421C13.7999 14.4748 13.5971 14.2075 13.4619 13.8066L13.3267 13.5393C13.2591 13.4056 13.1239 13.1383 12.9887 12.8042C12.8535 12.4701 12.7182 12.2028 12.583 11.8687C12.5154 11.7351 12.4478 11.6682 12.3802 11.6014H12.3126C12.3126 11.6014 12.245 11.5346 12.1774 11.5346C12.1098 11.5346 12.0422 11.4678 11.9746 11.4678H9.54084C9.27042 11.4678 9.13521 11.5346 9.06761 11.6014L9 11.6682C9 11.6682 9 11.735 9 11.8019C9 11.8687 9 11.9355 9.06761 12.0692C9.40563 12.871 9.81126 13.6729 10.2169 14.4748C10.6225 15.2098 11.0281 15.8781 11.2986 16.3458C11.6366 16.8136 11.907 17.2813 12.245 17.6823C12.583 18.0832 12.7858 18.3505 12.8535 18.4841C12.9887 18.6178 13.0563 18.6846 13.1239 18.7514L13.3267 18.9519C13.4619 19.0855 13.6647 19.286 13.9351 19.4865C14.2055 19.6869 14.5436 19.8874 14.8816 20.0879C15.2196 20.2883 15.6252 20.422 16.0309 20.5556C16.5041 20.6893 16.9097 20.7561 17.3153 20.6893H18.3294C18.5322 20.6893 18.6674 20.6225 18.8027 20.4888L18.8702 20.422C18.8702 20.3552 18.9378 20.3552 18.9378 20.2883C18.9378 20.2215 18.9378 20.1547 18.9378 20.0211C18.9378 19.7538 18.9379 19.5533 19.0055 19.3528C19.0731 19.1524 19.0731 19.0187 19.1407 18.8851C19.2083 18.7514 19.2759 18.6846 19.3435 18.6178C19.4111 18.551 19.4787 18.4841 19.4787 18.4841H19.5463C19.6815 18.4173 19.8843 18.4841 20.0195 18.6178C20.2223 18.7514 20.4251 18.9519 20.5604 19.1524C20.6956 19.3528 20.8984 19.5533 21.1688 19.8206C21.4392 20.0879 21.642 20.2884 21.7772 20.3552L21.98 20.4888C22.1153 20.5556 22.2505 20.6225 22.4533 20.6893C22.6561 20.7561 22.7913 20.7561 22.9265 20.7561L25.2251 20.6893C25.4279 20.6893 25.6307 20.6225 25.7659 20.5556C25.9011 20.4888 25.9687 20.422 25.9687 20.2883C25.9687 20.2215 25.9687 20.0879 25.9687 20.0211C25.8335 19.8874 25.8335 19.8206 25.8335 19.7538Z" fill="#C7C7C7"/>
</svg>
