<svg width="94" height="61" viewBox="0 0 94 61" fill="none" xmlns="http://www.w3.org/2000/svg">
<path d="M62.2369 4.51629V11.7974V11.8317C61.8973 14.0298 59.2779 15.7813 56.0278 15.7813C52.7291 15.7813 50.0611 13.9954 49.8186 11.7287V10.9387V5.40925V4.51629C49.8671 4.24153 49.9156 3.96677 50.0611 3.69202C50.7888 1.94044 53.0202 0.669684 55.6397 0.56665C55.7852 0.56665 55.8822 0.56665 56.0278 0.56665C56.1733 0.56665 56.3188 0.56665 56.4158 0.56665C56.9494 0.600995 57.4345 0.669684 57.8711 0.772718C57.9681 0.807063 58.0651 0.807063 58.1621 0.841408C60.345 1.39092 61.9944 2.79905 62.2369 4.51629Z" fill="#CAFF01" fill-opacity="0.9"/>
<path d="M93.3311 5.70715L93.2826 44.7227C93.2826 53.2402 83.5323 60.1778 71.5021 60.1435C59.4719 60.1435 49.7216 53.2058 49.7701 44.6884V34.1445V32.9768C49.4306 31.3626 47.8783 30.0575 45.7439 29.508C45.6469 29.4737 45.5499 29.4737 45.4528 29.4393C45.0163 29.3363 44.5312 29.2676 44.0461 29.2676H35.7996C33.2286 29.2676 31.1427 27.2756 31.1427 24.8371V16.7661C31.1427 16.6975 31.1427 16.5944 31.1427 16.5257C30.9487 12.9882 26.8739 10.1376 21.829 10.1376C16.7841 10.1376 12.6123 12.9882 12.4668 16.5257C12.4668 16.5944 12.4668 16.6975 12.4668 16.7661V44.7227C12.4668 44.7914 12.4668 44.8944 12.4668 44.9631C12.6608 48.5006 16.7356 51.3512 21.7805 51.3512C26.7769 51.3512 30.9002 48.535 31.0942 44.9975V44.9631C31.0942 44.8944 31.0942 44.7914 31.0942 44.7227V44.5166C30.9972 43.658 30.1725 42.9368 29.0568 42.662C29.0083 42.662 28.9598 42.6277 28.9113 42.6277C28.6688 42.559 28.4262 42.559 28.1837 42.5247H24.8851C21.4409 42.5247 18.6274 40.5327 18.6274 38.0942C18.6274 37.6477 18.7244 37.2356 18.87 36.8234C19.5976 35.0719 21.7805 33.8011 24.4485 33.6637H37.6914C38.225 33.6981 38.7101 33.7668 39.1467 33.8698C39.2437 33.9041 39.3407 33.9041 39.4377 33.9385C41.6206 34.5223 43.2699 35.9305 43.5125 37.6477V44.7227C43.5125 53.2402 33.7622 60.1778 21.732 60.1778C9.70178 60.1778 0 53.2745 0 44.7227V16.7661C0 8.24866 9.75029 1.31104 21.7805 1.31104C33.7622 1.31104 43.464 8.14563 43.561 16.6288C43.8521 18.2773 45.4528 19.6167 47.5872 20.1663C47.6843 20.2006 47.7813 20.2006 47.8783 20.235C48.2178 20.3036 48.6059 20.3723 48.994 20.4067H56.4159C56.9495 20.441 57.4345 20.5097 57.8711 20.6127C57.9681 20.6471 58.0652 20.6471 58.1622 20.6814C60.3451 21.2653 61.9944 22.6734 62.2369 24.3907V44.2762C62.2369 44.4136 62.2369 44.551 62.2369 44.6884C62.2369 48.3289 66.4087 51.3169 71.5506 51.3169C76.5956 51.3169 80.7188 48.5006 80.8643 44.9288H80.9129V5.70715C80.9129 3.37172 83.4838 1.44841 86.7339 1.31104H87.5586C88.0922 1.34538 88.5773 1.41407 89.0138 1.5171C89.1109 1.55145 89.2079 1.55145 89.3049 1.58579C91.6333 2.204 93.3311 3.8182 93.3311 5.70715Z" fill="#CAFF01" fill-opacity="0.9"/>
</svg>
